<svg xmlns="http://www.w3.org/2000/svg" width="512" height="512"><path d="M194 125c-15.386-3.663-34.016-.667-49 3.579C62.279 152.021 29.122 254.737 65.753 328c9.374 18.747 23.968 40.396 43.247 50-2.499-13.413-2.982-27.52-.535-41 8.867-48.854 59.633-78.612 104.535-89-2.276-4.161-6.49-6.1-10-9.184-5.847-5.139-10.934-10.98-14.688-17.816-18.517-33.717-6.072-76.32 18.778-103C244.503 77.832 302.116 65.863 354 79.371c18.236 4.748 43.716 13.541 51.387 32.629 7.398 18.408-7.56 42.995-27.387 43.96-16.049.781-24.573-7.31-38-14.327-7.157-3.74-15.95-5.979-24-6.543-11.944-.838-24.873-.517-35 6.699-20.926 14.911-35.441 57.012-10.985 75.447 6.85 5.164 13 4.174 20.985 4.934 13.932 1.326 27.994.829 42 .83 7.663 0 17.904-.359 24.96 2.97 10.744 5.069 9.847 22.552 4.187 31.03C352 272.197 330.592 274.88 314 277.271c-28.501 4.107-57.535 6.907-85 16.062-18.308 6.103-34.445 16.923-39.522 36.667-1.525 5.931-1.615 11.911-1.463 18 .596 23.948 22.524 35.978 42.985 41.575 12.16 3.326 24.508 3.425 37 3.425 32.114 0 64.164-7.004 95-15.576 16.645-4.626 39.571-15.726 49.722 4.576 1.57 3.139 2.571 6.46 2.06 10-.83 5.761-5.66 10.141-9.782 13.826-10.252 9.166-23.492 15.057-36 20.455-35.713 15.411-73.274 23.978-112 26.629-15.698 1.076-31.362-.91-47-.91 7.221 12.493 20.854 22.744 33 30.189 59.81 36.658 138.573 14.246 173.127-46.189 22.141-38.724 25.613-86.336 9.809-128-4.333-11.422-10.246-22.083-17.364-32-2.356-3.281-8.746-8.709-8.556-13 .198-4.469 7.449-8.966 10.269-12.039 8.359-9.113 15.767-18.939 21.457-29.961 20.426-39.571 22.59-89.289 3.949-130-7.203-15.733-17.039-30.985-29.695-42.91C369.742 13.925 316.891 3.802 271 23.427c-12.029 5.145-23.041 12.759-33 21.163-11.914 10.054-22.178 23.52-29.244 37.41-6.855 13.476-12.805 27.896-14.756 43z" fill="#5ab400"/></svg>